# xmcd
#
# Track frame offsets:
#	150
#	14553
#	26730
#	45200
#	62187
#	80539
#	93725
#	109035
#	128091
#	143836
#
# Disc length: 2128 seconds
#
# Revision: 1
# Processed by: cddbd v1.5.2PL0 Copyright (c) Steve Scherf et al.
# Submitted via: audiograbber 1.83.01
#
DISCID=82084e0a
DTITLE=The Lost Tralers - Holler Back
DYEAR=2008
DGENRE=Southern Rock
TTITLE0=Holler Back
TTITLE1=How Bout You Don't
TTITLE2=Blacktop Road
TTITLE3=Country Folks
TTITLE4=Things You Don't Grow Out Of
TTITLE5=Hey Baby
TTITLE6=The Rest Of Us
TTITLE7=All This Love
TTITLE8=Summer Of Love
TTITLE9=Gravy
EXTD=
EXTT0=
EXTT1=
EXTT2=
EXTT3=
EXTT4=
EXTT5=
EXTT6=
EXTT7=
EXTT8=
EXTT9=
PLAYORDER=
